<svg width="511.288" height="511.288" xmlns="http://www.w3.org/2000/svg" enable-background="new 0 0 511.288 511.288">

 <g>
  <title>Layer 1</title>
  <g id="svg_1">
   <path id="svg_2" fill="#b34f03" d="m447.57,347.019c14.54,-11.829 23.835,-29.858 23.835,-50.064c0,-35.629 -28.883,-64.513 -64.512,-64.514c9.491,-11.233 15.222,-25.745 15.222,-41.602c0,-35.63 -28.884,-64.514 -64.514,-64.514l-11.885,0c-8.954,0 -16.213,-7.259 -16.213,-16.213c0,-41.339 -33.512,-74.851 -74.851,-74.851l-80.756,0c-6.17,0 -9.276,7.372 -5.029,11.849c10.341,10.901 23.218,30.104 27.716,60.758c1.429,9.741 -6.213,18.457 -16.059,18.457l-25.224,0c-35.63,0 -64.514,28.884 -64.514,64.514c0,15.858 5.732,30.371 15.224,41.605c-35.581,0.058 -64.408,28.917 -64.408,64.511c0,20.194 9.284,38.214 23.81,50.044l-0.898,0c-35.63,0 -64.514,28.884 -64.514,64.514c0,35.63 28.884,64.514 64.514,64.514l382.26,0c35.63,0 64.514,-28.884 64.514,-64.514c0,-35.363 -28.457,-64.066 -63.718,-64.494z"/>
   <path id="svg_3" fill="#933d02" d="m447.57,347.009c14.541,-11.829 23.835,-29.858 23.835,-50.064c0,-35.629 -28.883,-64.512 -64.512,-64.514c9.49,-11.233 15.222,-25.745 15.222,-41.602c0,-35.63 -28.884,-64.514 -64.514,-64.514l-11.885,0c-8.954,0 -16.213,-7.259 -16.213,-16.213c0,-41.208 -33.302,-74.63 -74.461,-74.841l0,440.756l191.732,0c35.63,0 64.514,-28.884 64.514,-64.514c0,-35.363 -28.457,-64.066 -63.718,-64.494z"/>
   <path id="svg_4" fill="#ff9ac9" d="m331.38,314.554l-152.676,0c-4.976,0 -9.01,4.034 -9.01,9.01l0,0.756c0,47.061 38.287,85.348 85.348,85.348s85.348,-38.287 85.348,-85.348l0,-0.756c0,-4.977 -4.034,-9.01 -9.01,-9.01z"/>
   <g id="svg_5">
    <g id="svg_6">
     <path id="svg_7" fill="#132c63" d="m225.786,269.829c-8.781,0 -15.899,-7.119 -15.899,-15.899c0,-8.908 -7.247,-16.155 -16.154,-16.155c-8.908,0 -16.155,7.247 -16.155,16.155c0,8.781 -7.119,15.899 -15.899,15.899s-15.899,-7.119 -15.899,-15.899c0,-26.442 21.512,-47.954 47.954,-47.954c26.441,0 47.953,21.512 47.953,47.954c-0.001,8.781 -7.12,15.899 -15.901,15.899z"/>
    </g>
    <g id="svg_8">
     <path id="svg_9" fill="#000f35" d="m348.405,269.829c-8.781,0 -15.899,-7.119 -15.899,-15.899c0,-8.908 -7.247,-16.155 -16.154,-16.155c-8.908,0 -16.155,7.247 -16.155,16.155c0,8.781 -7.119,15.899 -15.899,15.899s-15.899,-7.119 -15.899,-15.899c0,-26.442 21.512,-47.954 47.954,-47.954c26.441,0 47.953,21.512 47.953,47.954c-0.002,8.781 -7.12,15.899 -15.901,15.899z"/>
    </g>
   </g>
   <path id="svg_10" fill="#ff5ca8" d="m331.38,314.554l-76.338,0l0,95.113c47.061,0 85.348,-38.287 85.348,-85.348l0,-0.756c0,-4.976 -4.034,-9.009 -9.01,-9.009z"/>
  </g>
  <g id="svg_49">
   <g id="svg_17">
    <path id="svg_18" fill="#fcd89f" d="m471.63913,292.8924c3.40277,-3.28074 5.52343,-7.88258 5.52343,-12.98269c0,-9.6108 -7.51749,-17.463 -16.99259,-18.0038c0.11596,-0.63751 0.18584,-1.29174 0.18584,-1.96318c0,-6.01865 -4.87933,-10.89798 -10.89798,-10.89798c-0.24103,0 -0.477,0.02076 -0.71448,0.03595c-0.92361,-6.73921 -6.70022,-11.93198 -13.69312,-11.93198c-7.05974,0 -12.8799,5.29303 -13.71742,12.12642c-0.04608,0.3737 -0.39952,0.62334 -0.77322,0.57624c-0.73423,-0.09317 -1.48162,-0.1433 -2.24117,-0.1433c-0.07342,0 -0.14533,0.00456 -0.21875,0.00557c0.13976,-1.04818 0.21875,-2.11559 0.21875,-3.20174c0,-13.27385 -10.76025,-24.0341 -24.0341,-24.0341c-12.83989,0 -23.32671,10.06906 -23.99865,22.74135c-2.74298,-6.61768 -9.40775,-11.19826 -17.0964,-10.83823c-8.97987,0.42079 -16.28925,7.72915 -16.71915,16.70852c-0.14026,2.92274 0.44003,5.69407 1.56872,8.16209c-0.89627,-0.37522 -1.88013,-0.58384 -2.91312,-0.58384c-4.16991,0 -7.55041,3.38049 -7.55041,7.55041c0,0.07292 0.00911,0.14381 0.01114,0.21672c-0.78436,-0.13976 -1.58999,-0.21672 -2.41435,-0.21672c-7.56205,0 -13.6921,6.13005 -13.6921,13.6921c0,5.61103 3.37644,10.43112 8.20767,12.54569l18.14356,43.63548l114.22173,0l19.58619,-43.199z"/>
    <path id="svg_19" fill="#fcd89f" d="m471.63913,292.8924c3.40277,-3.28074 5.52343,-7.88258 5.52343,-12.98269c0,-9.6108 -7.51749,-17.463 -16.99259,-18.0038c0.11596,-0.63751 0.18584,-1.29174 0.18584,-1.96318c0,-6.01865 -4.87933,-10.89798 -10.89798,-10.89798c-0.24103,0 -0.477,0.02076 -0.71448,0.03595c-0.92361,-6.73921 -6.70022,-11.93198 -13.69312,-11.93198c-7.05974,0 -12.8799,5.29303 -13.71742,12.12642c-0.04608,0.3737 -0.39952,0.62334 -0.77322,0.57624c-0.73423,-0.09317 -1.48162,-0.1433 -2.24117,-0.1433c-0.07342,0 -0.14533,0.00456 -0.21875,0.00557c0.13976,-1.04818 0.21875,-2.11559 0.21875,-3.20174c0,-13.27385 -10.76025,-24.0341 -24.0341,-24.0341c-12.83989,0 -23.32671,10.06906 -23.99865,22.74135c-2.74298,-6.61768 -9.40775,-11.19826 -17.0964,-10.83823c-8.97987,0.42079 -16.28925,7.72915 -16.71915,16.70852c-0.14026,2.92274 0.44003,5.69407 1.56872,8.16209c-0.89627,-0.37522 -1.88013,-0.58384 -2.91312,-0.58384c-4.16991,0 -7.55041,3.38049 -7.55041,7.55041c0,0.07292 0.00911,0.14381 0.01114,0.21672c-0.78436,-0.13976 -1.58999,-0.21672 -2.41435,-0.21672c-7.56205,0 -13.6921,6.13005 -13.6921,13.6921c0,5.61103 3.37644,10.43112 8.20767,12.54569l18.14356,43.63548l114.22173,0l19.58619,-43.199z"/>
    <g id="svg_20">
     <path id="svg_21" fill="#fbc773" d="m316.43274,290.16614c0,-7.56205 6.13005,-13.6921 13.6921,-13.6921c0.31698,0 0.63144,0.01114 0.94285,0.03342c0.87956,0.06178 1.7105,-0.39496 2.12217,-1.17477c1.17426,-2.22699 3.81445,-6.40855 6.88909,-6.40855c0.17216,0 0.34281,0.00557 0.51193,0.01722c1.00868,0.06785 1.76873,-0.92361 1.49023,-1.89532c-0.51599,-1.7981 -0.75296,-3.71419 -0.65827,-5.69964c0.4299,-8.97937 7.73877,-16.28773 16.71814,-16.70903c5.45456,-0.25622 10.39364,1.97482 13.78274,5.65508c1.37782,1.49631 3.82609,0.96614 4.4555,-0.96817c3.13339,-9.63005 12.18263,-16.59054 22.85781,-16.59054c7.46989,0 14.14733,3.40733 18.55574,8.75302c-2.31105,-10.86153 -11.95831,-19.00944 -23.50849,-19.00944c-12.83989,0 -23.32671,10.06906 -23.99865,22.74135c-2.74298,-6.61768 -9.40775,-11.19876 -17.09741,-10.83823c-8.97987,0.4213 -16.28874,7.72966 -16.71865,16.70903c-0.13976,2.92223 0.44003,5.69407 1.56872,8.16159c-0.89627,-0.37522 -1.88013,-0.58384 -2.91312,-0.58384c-4.16991,0 -7.55041,3.38049 -7.55041,7.55041c0,0.07292 0.00911,0.14381 0.01114,0.21672c-0.78436,-0.13976 -1.58999,-0.21672 -2.41435,-0.21672c-7.56205,0 -13.6921,6.13005 -13.6921,13.6921c0,4.24283 1.92824,8.03145 4.95832,10.54201c-0.00152,-0.0957 -0.00506,-0.18938 -0.00506,-0.28559z"/>
    </g>
    <path id="svg_22" fill="#e43e54" d="m461.6207,455.61983l-9.48674,-13.39082l-116.70696,0l-7.13772,13.39082l1.80266,14.42633c0.30888,2.47106 2.4103,4.32942 4.90161,4.32942l120.09961,0c2.49131,0 4.59273,-1.85836 4.90161,-4.32942l1.80266,-14.40608l-0.17672,-0.02025z"/>
    <g id="svg_15">
     <g id="svg_23">
      <g id="svg_24">
       <path id="svg_25" fill="#fbce85" d="m354.55897,296.96813c-0.96868,0 -1.93735,-0.36813 -2.67816,-1.10489c-4.02813,-4.00585 -6.24601,-9.34041 -6.24601,-15.02182c0,-11.68184 9.50396,-21.1858 21.1858,-21.1858c2.09736,0 3.79774,1.70037 3.79774,3.79774s-1.70037,3.79774 -3.79774,3.79774c-7.49369,0 -13.59033,6.09663 -13.59033,13.59033c0,3.64431 1.42289,7.06632 4.00686,9.63612c1.48719,1.47909 1.49378,3.88331 0.01468,5.37051c-0.74233,0.74689 -1.71759,1.12008 -2.69285,1.12008z"/>
      </g>
      <g id="svg_26">
       <path id="svg_27" fill="#f9f7f8" d="m479.5764,297.66945c-9.89943,-8.16766 -21.22681,-9.01329 -34.77714,1.55454l-16.63206,0l0,156.39584l4.15523,0l29.29827,0l0.17723,0.02025l19.27731,-154.2286c0.17723,-1.42289 -0.39496,-2.83058 -1.49884,-3.74204z"/>
       <path id="svg_28" fill="#e43e54" d="m410.84244,299.22399l-16.52117,0l0,156.39584l13.16397,0l24.83719,0l12.47683,-156.39584c-11.58563,-10.15261 -22.91807,-10.66404 -33.95682,0z"/>
       <path id="svg_29" fill="#f9f7f8" d="m345.28845,299.22399c-13.55032,-10.56783 -24.8777,-9.7222 -34.77714,-1.55454c-1.10388,0.91146 -1.67607,2.31915 -1.49884,3.74204l19.27731,154.20834l29.4755,0l0,-153.41841l-12.47683,-2.97743z"/>
       <path id="svg_30" fill="#e43e54" d="m379.24527,299.22399c-11.03875,-10.66404 -22.3712,-10.15261 -33.95682,0l12.47683,156.39584l24.83719,0l9.27762,0l0,-156.39584l-12.63482,0z"/>
       <path id="svg_31" fill="#f9f7f8" d="m407.48524,455.61983l3.3572,-156.39584c-11.25649,-9.63106 -21.90534,-11.19066 -31.59716,0l3.3572,156.39584l24.88277,0z"/>
      </g>
      <g id="svg_32">
       <g id="svg_33" fill="#efedef">
        <path id="svg_34" d="m461.6207,455.61983l0.17723,0.02025l0.00253,-0.02025l-0.17976,0z"/>
        <path id="svg_35" d="m333.25975,297.66945c1.5115,-1.24718 3.05642,-2.32118 4.63729,-3.21238c-10.35567,-5.2267 -19.34212,-3.42455 -27.38624,3.21238c-1.10388,0.91146 -1.67607,2.31915 -1.49884,3.74204l19.27731,154.20834l22.74844,0l-19.27731,-154.20834c-0.17672,-1.42289 0.39547,-2.83058 1.49935,-3.74204z"/>
       </g>
      </g>
      <g id="svg_36">
       <g id="svg_37" fill="#efedef">
        <path id="svg_38" d="m410.88244,299.18601c0.01367,0.01317 0.02684,0.02481 0.04051,0.03747c0.14178,-0.16406 0.28458,-0.31597 0.42687,-0.47396c-0.15545,0.14583 -0.31141,0.2866 -0.46737,0.43649z"/>
        <path id="svg_39" d="m394.60281,291.42547c-1.83962,-0.08456 -3.65494,0.14988 -5.44545,0.71954c1.8219,-0.50231 3.63722,-0.74334 5.44545,-0.71954z"/>
        <path id="svg_40" d="m461.6207,455.61983l0.17723,0.02025l0.00253,-0.02025l-0.17976,0z"/>
       </g>
      </g>
     </g>
    </g>
    <g id="svg_41">
     <path id="svg_42" fill="#fbce85" d="m400.35866,264.11367c-2.09736,0 -3.79774,-1.70037 -3.79774,-3.79774c0,-2.56474 -2.08673,-4.65147 -4.65147,-4.65147c-2.09736,0 -3.79774,-1.70037 -3.79774,-3.79774s1.70037,-3.79774 3.79774,-3.79774c6.75288,0 12.24694,5.49406 12.24694,12.24694c0,2.09736 -1.70037,3.79774 -3.79774,3.79774z"/>
    </g>
    <g id="svg_43">
     <path id="svg_44" fill="#fbce85" d="m421.68269,280.36595c-2.09736,0 -3.79774,-1.70037 -3.79774,-3.79774c0,-7.65117 6.22424,-13.87541 13.87541,-13.87541c2.09736,0 3.79774,1.70037 3.79774,3.79774s-1.70037,3.79774 -3.79774,3.79774c-3.46303,0 -6.27994,2.81691 -6.27994,6.27994c0,2.09736 -1.70037,3.79774 -3.79774,3.79774z"/>
    </g>
    <path id="svg_45" fill="#fcd89f" d="m520.81627,384.06491c0,-4.96339 -4.02357,-8.98696 -8.98696,-8.98696c-3.78862,0 -7.02328,2.34751 -8.3454,5.66521c-1.12312,-0.50485 -2.36523,-0.79195 -3.67621,-0.79195c-4.96339,0 -8.98696,4.02357 -8.98696,8.98696s4.02357,8.98696 8.98696,8.98696c0.87956,0 1.72721,-0.13216 2.53081,-0.36762c0.74081,4.2165 4.41297,7.42381 8.84214,7.42381c4.96339,0 8.98696,-4.02357 8.98696,-8.98696c0,-2.11812 -0.73727,-4.06155 -1.96318,-5.59736c1.61378,-1.62492 2.61183,-3.86154 2.61183,-6.33209z"/>
    <path id="svg_46" fill="#fbce85" d="m519.03386,398.92722c-4.42917,0 -8.10133,-3.20681 -8.84214,-7.42381c-0.8036,0.23546 -1.65126,0.36762 -2.53081,0.36762c-4.96339,0 -8.98696,-4.02357 -8.98696,-8.98696c0,-1.01627 0.17672,-1.98951 0.48763,-2.90046c-4.66008,0.33268 -8.34033,4.20941 -8.34033,8.95405c0,4.96339 4.02357,8.98696 8.98696,8.98696c0.87956,0 1.72721,-0.13216 2.53081,-0.36762c0.74081,4.21701 4.41297,7.42381 8.84214,7.42381c3.94711,0 7.29165,-2.54803 8.49933,-6.08651c-0.2147,0.0157 -0.42838,0.03291 -0.64663,0.03291z"/>
    <path id="svg_47" fill="#fcd89f" d="m294.87071,330.01046c-1.94849,-4.56488 -7.22836,-6.68604 -11.79324,-4.73806c-3.4848,1.48719 -5.53811,4.9163 -5.45152,8.48617c-1.23097,-0.02329 -2.48625,0.20001 -3.69191,0.71448c-4.56488,1.94849 -6.68604,7.22836 -4.73806,11.79324c1.94849,4.56488 7.22836,6.68604 11.79324,4.73806c0.80917,-0.34534 1.53682,-0.79955 2.18345,-1.33174c2.33687,3.58759 6.97315,5.09555 11.04635,3.3572c4.56488,-1.94849 6.68604,-7.22836 4.73806,-11.79324c-0.83145,-1.94799 -2.27257,-3.44581 -4.00281,-4.37752c0.84614,-2.12774 0.88614,-4.57653 -0.08355,-6.84858z"/>
    <path id="svg_48" fill="#fbce85" d="m276.15496,351.3583c-1.94849,-4.56488 0.17267,-9.84525 4.73806,-11.79324c1.20565,-0.51447 2.46093,-0.73777 3.69191,-0.71448c-0.08659,-3.56987 1.96723,-6.99897 5.45152,-8.48617c1.53682,-0.65574 3.15212,-0.84057 4.69653,-0.6365c-2.04419,-4.36486 -7.18785,-6.36197 -11.65551,-4.4555c-3.4848,1.48719 -5.53811,4.9163 -5.45152,8.48617c-1.23097,-0.02329 -2.48625,0.20001 -3.69191,0.71448c-4.56488,1.94849 -6.68604,7.22836 -4.73806,11.79324c1.29224,3.02857 4.05294,4.97149 7.0967,5.37405c-0.04456,-0.09469 -0.09621,-0.18482 -0.13773,-0.28205z"/>
   </g>
  </g>
 </g>
</svg>