<svg id="Capa_1" enable-background="new 0 0 512 512" height="512" viewBox="0 0 512 512" width="512" xmlns="http://www.w3.org/2000/svg"><g><g><path d="m456.969 407.139c27.744-39.712 44.031-88.02 44.031-140.139 0-135.31-109.69-245-245-245s-245 109.69-245 245c0 52.119 16.287 100.427 44.031 140.139z" fill="#e80054"/></g><g><circle cx="256" cy="222" fill="#ff4155" r="180"/></g><g><path d="m174.131 36.423c19.783-22.322 47.62-36.423 81.869-36.423s48.985 5.638 62.772 12 14.708 34.073 14.708 34.073c17.176 18.715 27.663 43.666 27.663 71.07v30.076h-210.286v-30.076c0-23.009 3.49-58.398 23.274-80.72z" fill="#ffdd40"/></g><g><path d="m174.131 36.423c-19.784 22.322-23.273 57.711-23.273 80.72v30.076h57.869v-10.419c-21.551-46.968-7.046-136.8 47.273-136.8-34.249 0-62.085 14.101-81.869 36.423z" fill="#ffc839"/></g><g><path d="m456.908 407.139c-9.221-25.363-19.04-47.328-27.391-54.702-22.713-20.055-117.884-36.418-125.915-37.77h-.496c0-.031.003-.062.003-.093h-94.217v.01h-.062c-2.584.428-102.995 17.179-126.408 37.852-8.351 7.373-18.17 29.339-27.391 54.702 32.698 46.804 81.323 81.655 138.016 96.689l.013-.005h125.88l.001.008c56.675-15.027 105.288-49.857 137.988-96.635-.008-.017-.014-.036-.021-.056z" fill="#3b3868"/></g><g><path d="m256 265.495c-66.613 0-107.789 71.611-120.363 134.554-2.232 11.171 4.616 22.15 15.628 25.069l1.946.516c6.666 1.767 12.085 6.615 14.579 13.045l25.27 65.146c9.507 2.52 19.24 4.479 29.164 5.848l33.756-17.225 34.077 17.186c9.826-1.367 19.466-3.312 28.883-5.809l25.27-65.146c2.494-6.43 7.913-11.278 14.579-13.045l1.946-.516c11.012-2.918 17.86-13.897 15.628-25.069-12.574-62.943-53.75-134.554-120.363-134.554z" fill="#47477f"/></g><g><path d="m208.891 314.575s-6.004.989-15.431 2.782l26.867 108.205c1.055 4.25 1.589 8.612 1.589 12.99v71.077c11.141 1.551 22.516 2.371 34.084 2.371s22.943-.82 34.083-2.371v-71.077c0-4.379.533-8.741 1.589-12.99l26.867-108.205c-9.426-1.792-15.43-2.782-15.43-2.782z" fill="#e9efff"/></g><g><path d="m221.917 451.709v57.92c11.14 1.551 22.515 2.371 34.083 2.371s22.943-.82 34.083-2.371v-26.009c-29.545-3.082-51.71-14.591-68.166-31.911z" fill="#d3dcfb"/></g><g><path d="m91.07 426.843v21.327c7.157 6.519 14.704 12.617 22.599 18.262l-12.035-41.103c-1.75-5.98-10.564-4.716-10.564 1.514z" fill="#2d2d59"/></g><g><path d="m420.93 426.843v21.327c-7.157 6.519-14.704 12.617-22.599 18.262l12.035-41.103c1.75-5.98 10.564-4.716 10.564 1.514z" fill="#2d2d59"/></g><g><path d="m208.891 193.75v120.825c0 18.367 21.091 33.256 47.109 33.256s47.109-14.889 47.109-33.256v-120.825z" fill="#fcad6d"/></g><g><path d="m208.614 220.734v93.841c94.723 0 94.772-53.4 94.772-53.4v-40.44h-94.772z" fill="#fd995b"/></g><g><path d="m180.942 159.567s-10.385-25.285-28.897-19.415.448 60.664 36.573 64.116z" fill="#fd995b"/></g><g><path d="m331.058 159.567s10.385-25.285 28.897-19.415-.448 60.664-36.573 64.116z" fill="#fcad6d"/></g><g><path d="m317.163 84.904c10.322 3.439 17.93 12.279 20.432 22.867 2.552 10.801 6.002 27.519 6.002 38.984 0 64.505-39.219 140.155-87.597 140.155s-87.597-75.65-87.597-140.155c0-1.674.033-2.084.085-3.733 81.411-.002 112.185-70.275 148.675-58.118z" fill="#f9ba8f"/></g><g><path d="m208.403 146.754c0-3.37.113-6.688.323-9.955-11.927 3.825-25.218 6.222-40.238 6.222-.052 1.649-.085 2.059-.085 3.733 0 64.505 39.219 140.155 87.597 140.155 6.881 0 13.576-1.535 20-4.346-38.741-16.952-67.597-80.479-67.597-135.809z" fill="#fcad6d"/></g><g><path d="m208.891 299.609 47.109 48.222s-18.328 33.146-30.188 33.146c-11.859 0-32.352-63.621-32.352-63.621z" fill="#fff"/></g><g><path d="m303.109 299.609-47.109 48.222s18.328 33.146 30.188 33.146c11.859 0 32.352-63.621 32.352-63.621z" fill="#fff"/></g><g><g><path d="m242.013 192.447 8.436-13.441c2.569-4.093 8.533-4.093 11.102 0l8.436 13.441c2.739 4.365-.398 10.038-5.551 10.038h-16.871c-5.154-.001-8.291-5.674-5.552-10.038z" fill="#fcad6d"/></g></g><g><g><path d="m235.384 240.87h41.233c4.111-3.622 7.258-8.309 9.01-13.631 1.584-4.811-2.069-9.754-7.134-9.754h-44.985c-5.065 0-8.718 4.943-7.134 9.754 1.752 5.322 4.899 10.009 9.01 13.631z" fill="#2d2d59"/></g><g><path d="m276.616 240.87c-5.493 4.849-12.714 7.798-20.616 7.798s-15.124-2.948-20.616-7.798c5.5-4.849 12.714-7.798 20.616-7.798s15.116 2.949 20.616 7.798z" fill="#ff4155"/></g></g><g><path d="m223.5 138.968h-20c-4.142 0-7.5-3.358-7.5-7.5 0-4.142 3.358-7.5 7.5-7.5h20c4.142 0 7.5 3.358 7.5 7.5 0 4.142-3.358 7.5-7.5 7.5z" fill="#ff9100"/></g><g><path d="m308.5 138.968h-20c-4.142 0-7.5-3.358-7.5-7.5 0-4.142 3.358-7.5 7.5-7.5h20c4.142 0 7.5 3.358 7.5 7.5 0 4.142-3.358 7.5-7.5 7.5z" fill="#ff9100"/></g><g><g><g><path d="m235.046 167.697c-1.657 0-3.278-.823-4.23-2.327-1.477-2.333-.781-5.422 1.552-6.898 7.119-4.504 15.292-6.885 23.635-6.885 8.338 0 16.507 2.378 23.623 6.878 2.334 1.476 3.03 4.564 1.554 6.898-1.475 2.333-4.562 3.032-6.897 1.554-5.516-3.487-11.836-5.331-18.279-5.331-6.447 0-12.771 1.845-18.287 5.335-.832.525-1.757.776-2.671.776z" fill="#2d2d59"/></g></g><g><circle cx="213.5" cy="170.118" fill="#47477f" r="27.025"/></g><g><circle cx="298.5" cy="170.118" fill="#47477f" r="27.025"/></g></g><g><path d="m310.999 162.085c.043-3.495-1.371-7.004-4.242-9.539-4.675-4.128-11.84-4.128-16.515 0-2.871 2.535-4.284 6.044-4.242 9.539.055 4.538 5.629 6.716 8.838 3.507 2.022-2.022 5.3-2.022 7.322 0 3.21 3.21 8.784 1.032 8.839-3.507z" fill="#2d2d59"/></g><g><path d="m201.001 162.085c-.043-3.495 1.371-7.004 4.242-9.539 4.675-4.128 11.84-4.128 16.515 0 2.871 2.535 4.284 6.044 4.242 9.539-.055 4.538-5.629 6.716-8.838 3.507-2.022-2.022-5.3-2.022-7.322 0-3.21 3.21-8.784 1.032-8.839-3.507z" fill="#2d2d59"/></g><g><path d="m439.514 213.365c-10.861-6.476-19.941-15.556-26.417-26.417-1.82-3.052-5.082-4.948-8.635-4.948-3.553 0-6.816 1.896-8.635 4.948-6.476 10.861-15.556 19.941-26.417 26.417-3.052 1.82-4.948 5.082-4.948 8.635 0 3.553 1.896 6.816 4.948 8.635 10.861 6.476 19.94 15.556 26.417 26.416 1.82 3.052 5.082 4.948 8.635 4.948 3.553 0 6.816-1.896 8.635-4.948 6.476-10.861 15.556-19.94 26.417-26.416 3.052-1.82 4.948-5.082 4.948-8.635.001-3.553-1.896-6.816-4.948-8.635z" fill="#fff"/></g><g><path d="m404.463 222c0-11.472 4.837-21.808 12.573-29.102-1.401-1.917-2.716-3.901-3.938-5.95-1.82-3.052-5.082-4.948-8.635-4.948s-6.816 1.896-8.635 4.948c-6.476 10.861-15.556 19.941-26.417 26.417-3.052 1.82-4.948 5.082-4.948 8.635 0 3.553 1.896 6.816 4.948 8.635 10.861 6.476 19.94 15.556 26.417 26.416 1.82 3.052 5.082 4.948 8.635 4.948 3.553 0 6.816-1.896 8.635-4.948 1.222-2.049 2.536-4.034 3.938-5.95-7.737-7.293-12.573-17.629-12.573-29.101z" fill="#e9efff"/></g><g><path d="m137.421 259.019c-10.861-6.476-19.941-15.556-26.417-26.417-1.82-3.052-5.082-4.948-8.635-4.948-3.553 0-6.816 1.896-8.635 4.948-6.476 10.861-15.556 19.941-26.417 26.417-3.052 1.82-4.948 5.082-4.948 8.635 0 3.553 1.896 6.816 4.948 8.635 10.861 6.476 19.94 15.556 26.417 26.416 1.82 3.052 5.082 4.948 8.635 4.948 3.553 0 6.816-1.896 8.635-4.948 6.476-10.861 15.556-19.94 26.416-26.416 3.052-1.82 4.948-5.082 4.948-8.635.001-3.552-1.895-6.815-4.947-8.635z" fill="#fff"/></g><g><path d="m102.369 267.655c0-11.472 4.837-21.808 12.573-29.102-1.401-1.917-2.716-3.901-3.938-5.95-1.82-3.052-5.082-4.948-8.635-4.948s-6.816 1.896-8.635 4.948c-6.476 10.861-15.556 19.941-26.417 26.417-3.052 1.82-4.948 5.082-4.948 8.635 0 3.553 1.896 6.816 4.948 8.635 10.861 6.476 19.94 15.556 26.417 26.416 1.82 3.052 5.082 4.948 8.635 4.948 3.553 0 6.816-1.896 8.635-4.948 1.222-2.049 2.536-4.034 3.938-5.95-7.736-7.293-12.573-17.63-12.573-29.101z" fill="#e9efff"/></g><g><path d="m194.598 43.349c-10.861-6.476-19.941-15.556-26.417-26.417-1.82-3.052-5.082-4.948-8.635-4.948-3.553 0-6.816 1.896-8.635 4.948-6.476 10.861-15.556 19.941-26.417 26.417-3.052 1.82-4.948 5.082-4.948 8.635 0 3.553 1.896 6.816 4.948 8.635 10.861 6.476 19.94 15.556 26.417 26.416 1.82 3.052 5.082 4.948 8.635 4.948 3.553 0 6.816-1.896 8.635-4.948 6.476-10.861 15.556-19.94 26.416-26.416 3.052-1.82 4.948-5.082 4.948-8.635.001-3.553-1.896-6.816-4.947-8.635z" fill="#fff"/></g><g><path d="m159.546 51.984c0-11.472 4.837-21.808 12.573-29.102-1.401-1.917-2.716-3.901-3.938-5.95-1.82-3.052-5.082-4.948-8.635-4.948s-6.816 1.896-8.635 4.948c-6.476 10.861-15.556 19.941-26.417 26.417-3.052 1.82-4.948 5.082-4.948 8.635 0 3.553 1.896 6.816 4.948 8.635 10.861 6.476 19.94 15.556 26.416 26.416 1.82 3.052 5.082 4.948 8.635 4.948 3.553 0 6.816-1.896 8.635-4.948 1.222-2.049 2.536-4.034 3.938-5.95-7.735-7.293-12.572-17.629-12.572-29.101z" fill="#e9efff"/></g></g></svg>