<svg id="Capa_1" enable-background="new 0 0 497 497" height="512" viewBox="0 0 497 497" width="512" xmlns="http://www.w3.org/2000/svg"><g><g><path d="m380.705 210.846c-2.481 0-4.908-1.229-6.337-3.479-2.222-3.495-1.188-8.131 2.307-10.353l58.414-36.884c3.498-2.22 8.131-1.188 10.353 2.308 2.222 3.495 1.188 8.131-2.307 10.353l-58.414 36.884c-1.248.792-2.64 1.171-4.016 1.171z" fill="#dad8db"/></g><g><path d="m117.253 211.977c-1.367 0-2.75-.373-3.992-1.156l-59.705-37.447c-3.504-2.209-4.554-6.841-2.345-10.345 2.208-3.504 6.841-4.554 10.344-2.345l59.705 37.447c3.504 2.209 4.554 6.841 2.345 10.345-1.426 2.261-3.862 3.501-6.352 3.501z" fill="#dad8db"/></g><path d="m433.35 444.44-20.442 33.973h-328.816l-21.972-33.973 87.07-335.06c2.04-7.73 9.03-13.11 17.02-13.11h164.58c7.99 0 14.98 5.38 17.02 13.11z" fill="#dd5790"/><path d="m433.35 444.442v-.002h-.001l-85.542-335.056c-2.037-7.729-9.026-13.115-17.019-13.115h-22.658c7.993 0 14.982 5.386 17.019 13.115l84.708 331.789c.423 1.656-.828 3.267-2.538 3.267-9.4 0-17.02 7.62-17.02 17.02v16.95h20.393v.003h2.216l20.443-33.969z" fill="#da387d"/><g><path d="m433.351 162.701h41.68v298.728h-41.68z" fill="#eceaec"/><path d="m452.374 162.701h22.657v298.728h-22.657z" fill="#dad8db"/></g><path d="m479.985 444.444h-50.062c-9.397 0-17.015 7.618-17.015 17.015v16.954h76.328c4.288 0 7.764-3.476 7.764-7.764v-9.19c0-9.397-7.618-17.015-17.015-17.015z" fill="#dad8db"/><path d="m479.985 444.444h-22.604c9.397 0 17.015 7.618 17.015 17.015v10.219c0 2.912-1.715 5.552-4.376 6.735h19.216c4.288 0 7.764-3.476 7.764-7.764v-9.19c0-9.397-7.618-17.015-17.015-17.015z" fill="#c8c5c9"/><path d="m454.478 114.385h-.575c-15.786 0-28.584 12.797-28.584 28.584v7.166c0 15.786 12.797 28.584 28.584 28.584h.575c15.786 0 28.584-12.797 28.584-28.584v-7.166c0-15.786-12.797-28.584-28.584-28.584z" fill="#eceaec"/><path d="m454.478 114.385h-.575c-3.914 0-7.644.789-11.041 2.213 10.304 4.319 17.542 14.499 17.542 26.371v7.166c0 11.872-7.239 22.052-17.542 26.371 3.397 1.424 7.127 2.213 11.041 2.213h.575c15.786 0 28.584-12.797 28.584-28.583v-7.166c0-15.787-12.797-28.585-28.584-28.585z" fill="#dad8db"/><g><path d="m20.443 162.701h41.68v298.758h-41.68z" fill="#eceaec"/><path d="m39.466 162.701h22.657v298.759h-22.657z" fill="#dad8db"/></g><path d="m67.077 444.444h-50.062c-9.397 0-17.015 7.618-17.015 17.015v9.19c0 4.288 3.476 7.764 7.764 7.764h76.328v-16.954c0-9.397-7.618-17.015-17.015-17.015z" fill="#dad8db"/><path d="m67.077 444.444h-22.657c9.397 0 17.015 7.618 17.015 17.015v16.954h22.657v-16.954c0-9.397-7.618-17.015-17.015-17.015z" fill="#c8c5c9"/><path d="m41.57 114.385h-.575c-15.786 0-28.584 12.797-28.584 28.584v7.166c0 15.786 12.797 28.584 28.584 28.584h.575c15.786 0 28.584-12.797 28.584-28.584v-7.166c0-15.786-12.797-28.584-28.584-28.584z" fill="#eceaec"/><path d="m41.57 114.385h-.575c-3.914 0-7.644.789-11.041 2.213 10.304 4.319 17.542 14.499 17.542 26.371v7.166c0 11.872-7.239 22.052-17.542 26.371 3.397 1.424 7.127 2.213 11.041 2.213h.575c15.786 0 28.584-12.797 28.584-28.583v-7.166c0-15.787-12.797-28.585-28.584-28.585z" fill="#dad8db"/><g><path d="m247.96 259.19c-45.634 0-91.261-12.139-132.023-36.439-7.667-4.57-10.177-14.49-5.606-22.156 4.57-7.667 14.49-10.179 22.157-5.607 71.646 42.711 160.525 42.481 231.954-.605 7.645-4.607 17.575-2.15 22.185 5.492s2.151 17.575-5.492 22.186c-41.027 24.746-87.104 37.129-133.175 37.129z" fill="#ffe07d"/></g><g fill="#ffd064"><path d="m236.638 226.571c-36.1-1.819-71.874-12.341-104.151-31.583-6.295-3.754-14.103-2.725-19.227 2.004 38.171 21.864 81.006 31.717 123.378 29.579z"/><path d="m386.626 199.876c-4.61-7.643-14.541-10.1-22.185-5.492-1.111.67-2.226 1.33-3.346 1.979 1.091 1.009 2.067 2.177 2.873 3.513 4.61 7.642 2.151 17.575-5.492 22.186-37.665 22.718-79.587 35.008-121.852 36.871 3.777.167 7.556.258 11.335.258 46.071 0 92.148-12.383 133.175-37.129 7.644-4.61 10.102-14.543 5.492-22.186z"/></g><path d="m351.479 37.775 6.385-6.385c2.929-2.93 2.929-7.678 0-10.607-2.929-2.928-7.678-2.928-10.606 0l-6.386 6.386-6.386-6.386c-2.929-2.928-7.678-2.928-10.606 0-2.929 2.93-2.929 7.678 0 10.607l6.385 6.385-6.385 6.385c-2.929 2.93-2.929 7.678 0 10.607 1.464 1.464 3.384 2.196 5.303 2.196s3.839-.732 5.303-2.196l6.386-6.386 6.386 6.386c1.464 1.464 3.384 2.196 5.303 2.196s3.839-.732 5.303-2.196c2.929-2.93 2.929-7.678 0-10.607z" fill="#fff0af"/><g fill="#ffe07d"><circle cx="411.05" cy="87.107" r="7.767"/><circle cx="278.931" cy="137.514" r="7.767"/></g></g></svg>