<svg id="Capa_1" enable-background="new 0 0 511 511" height="512" viewBox="0 0 511 511" width="512" xmlns="http://www.w3.org/2000/svg"><g id="XMLID_391_"><circle id="XMLID_4117_" cx="255.5" cy="255.5" fill="#e6f0f2" r="240.5"/><path id="XMLID_4114_" d="m255.5 15v481c132.824 0 240.5-107.676 240.5-240.5s-107.676-240.5-240.5-240.5z" fill="#cfe6e6"/><path id="XMLID_3783_" d="m297.377 100.167h81.069v78h-81.069z" fill="#7daab3"/><path id="XMLID_3790_" d="m112.641 148.167h292.805v214.667h-292.805z" fill="#1f7099"/><path id="XMLID_3907_" d="m255.543 148.167h149.902v214.667h-149.902z" fill="#144a66"/><circle id="XMLID_3775_" cx="255.543" cy="255.5" fill="#8095ff" r="45.667"/><path id="XMLID_3906_" d="m255.543 209.833v91.333c25.221 0 45.667-20.446 45.667-45.667s-20.446-45.666-45.667-45.666z" fill="#66f"/><path id="XMLID_3776_" d="m255.543 316.167c-33.452 0-60.667-27.215-60.667-60.667s27.215-60.667 60.667-60.667 60.666 27.215 60.666 60.667-27.214 60.667-60.666 60.667zm0-91.334c-16.91 0-30.667 13.757-30.667 30.667s13.757 30.667 30.667 30.667 30.667-13.757 30.667-30.667-13.757-30.667-30.667-30.667z" fill="#9dbec4"/><path id="XMLID_3918_" d="m255.543 194.833v30c16.91 0 30.666 13.757 30.666 30.667s-13.757 30.667-30.666 30.667v30c33.452 0 60.666-27.215 60.666-60.667s-27.214-60.667-60.666-60.667z" fill="#7daab3"/><path id="XMLID_3771_" d="m436.166 74.834c-48.258-48.257-112.42-74.834-180.666-74.834s-132.408 26.577-180.666 74.834c-48.257 48.258-74.834 112.419-74.834 180.666s26.577 132.408 74.834 180.666c48.258 48.257 112.42 74.834 180.666 74.834s132.408-26.577 180.666-74.834c48.257-48.258 74.834-112.419 74.834-180.666s-26.577-132.408-74.834-180.666zm-406.166 180.666c0-56.784 21.106-108.726 55.873-148.413l318.04 318.04c-39.687 34.767-91.629 55.873-148.413 55.873-124.341 0-225.5-101.159-225.5-225.5zm395.126 148.413-318.04-318.04c39.688-34.767 91.63-55.873 148.414-55.873 124.341 0 225.5 101.159 225.5 225.5 0 56.784-21.106 108.726-55.874 148.413z" fill="#ff4d4d"/><path id="XMLID_3770_" d="m436.166 74.834c-48.258-48.257-112.42-74.834-180.666-74.834v30c124.341 0 225.5 101.159 225.5 225.5 0 56.784-21.106 108.726-55.874 148.414l-169.626-169.627v42.426l148.413 148.413c-39.687 34.768-91.629 55.874-148.413 55.874v30c68.246 0 132.408-26.577 180.666-74.834 48.257-48.258 74.834-112.419 74.834-180.666s-26.577-132.408-74.834-180.666z" fill="#e62e6b"/></g></svg>